<svg width="24" height="24" viewBox="0 0 24 24" fill="none" xmlns="http://www.w3.org/2000/svg">
<g clip-path="url(#clip0_173_2)">
<rect width="24" height="24" rx="12" fill="#CA0C47"/>
<path d="M9.94236 16.9342C9.19996 16.9342 8.61116 16.7422 8.17596 16.3582C7.74076 15.9614 7.52316 15.3534 7.52316 14.5342C7.52316 14.0606 7.58076 13.555 7.69596 13.0174C7.82396 12.4798 7.94556 11.9998 8.06076 11.5774C8.17596 11.1678 8.26556 10.8094 8.32956 10.5022C8.40636 10.195 8.44476 9.95823 8.44476 9.79183C8.44476 9.58703 8.39996 9.43983 8.31036 9.35023C8.22076 9.26063 8.11196 9.21583 7.98396 9.21583C7.67676 9.21583 7.42076 9.36303 7.21596 9.65743L7.13916 9.58063C7.15196 9.14543 7.29276 8.74863 7.56156 8.39023C7.83036 8.01903 8.17596 7.72463 8.59836 7.50703C9.02076 7.28943 9.44956 7.18063 9.88476 7.18063C10.3712 7.18063 10.7872 7.32783 11.1328 7.62223C11.4784 7.90383 11.6384 8.35183 11.6128 8.96623C11.6 9.23503 11.5488 9.57423 11.4592 9.98383C11.3824 10.3934 11.2736 10.8798 11.1328 11.443C11.0432 11.8014 10.9472 12.211 10.8448 12.6718C10.7552 13.1198 10.7104 13.5294 10.7104 13.9006C10.7104 14.1822 10.7552 14.4062 10.8448 14.5726C10.9344 14.739 11.0816 14.8222 11.2864 14.8222C11.5552 14.8222 11.8496 14.675 12.1696 14.3806C12.5024 14.0734 12.7904 13.5806 13.0336 12.9022C13.2768 12.211 13.4176 11.2958 13.456 10.1566C13.4944 9.28623 13.4368 8.65263 13.2832 8.25583V8.15983C13.3984 7.98063 13.5712 7.80783 13.8016 7.64143C14.0448 7.47503 14.3136 7.34063 14.608 7.23823C14.9024 7.12303 15.1776 7.06543 15.4336 7.06543C15.8432 7.06543 16.1888 7.26383 16.4704 7.66063C16.7648 8.05743 16.8928 8.74863 16.8544 9.73423C16.8288 10.6814 16.656 11.539 16.336 12.307C16.0288 13.075 15.6256 13.747 15.1264 14.323C14.6272 14.899 14.0768 15.379 13.4752 15.763C12.8864 16.147 12.2848 16.4414 11.6704 16.6462C11.056 16.8382 10.48 16.9342 9.94236 16.9342Z" fill="white"/>
</g>
<defs>
<clipPath id="clip0_173_2">
<rect width="24" height="24" fill="white"/>
</clipPath>
</defs>
</svg>
