<svg width="24" height="24" viewBox="0 0 24 24" fill="none" xmlns="http://www.w3.org/2000/svg">
<rect x="2" y="2" width="20" height="20" rx="10" fill="#CA0C47"/>
<path d="M10.2852 16.1117C9.66655 16.1117 9.17589 15.9517 8.81322 15.6317C8.45055 15.301 8.26922 14.7944 8.26922 14.1117C8.26922 13.717 8.31722 13.2957 8.41322 12.8477C8.51989 12.3997 8.62122 11.9997 8.71722 11.6477C8.81322 11.3064 8.88789 11.0077 8.94122 10.7517C9.00522 10.4957 9.03722 10.2984 9.03722 10.1597C9.03722 9.98903 8.99989 9.86636 8.92522 9.7917C8.85055 9.71703 8.75989 9.6797 8.65322 9.6797C8.39722 9.6797 8.18389 9.80236 8.01322 10.0477L7.94922 9.9837C7.95989 9.62103 8.07722 9.29036 8.30122 8.9917C8.52522 8.68236 8.81322 8.43703 9.16522 8.2557C9.51722 8.07436 9.87455 7.9837 10.2372 7.9837C10.6426 7.9837 10.9892 8.10636 11.2772 8.3517C11.5652 8.58636 11.6986 8.9597 11.6772 9.4717C11.6666 9.6957 11.6239 9.97836 11.5492 10.3197C11.4852 10.661 11.3946 11.0664 11.2772 11.5357C11.2026 11.8344 11.1226 12.1757 11.0372 12.5597C10.9626 12.933 10.9252 13.2744 10.9252 13.5837C10.9252 13.8184 10.9626 14.005 11.0372 14.1437C11.1119 14.2824 11.2346 14.3517 11.4052 14.3517C11.6292 14.3517 11.8746 14.229 12.1412 13.9837C12.4186 13.7277 12.6586 13.317 12.8612 12.7517C13.0639 12.1757 13.1812 11.413 13.2132 10.4637C13.2452 9.73836 13.1972 9.21036 13.0692 8.8797V8.7997C13.1652 8.65036 13.3092 8.50636 13.5012 8.3677C13.7039 8.22903 13.9279 8.11703 14.1732 8.0317C14.4186 7.9357 14.6479 7.8877 14.8612 7.8877C15.2026 7.8877 15.4906 8.05303 15.7252 8.3837C15.9706 8.71436 16.0772 9.29036 16.0452 10.1117C16.0239 10.901 15.8799 11.6157 15.6132 12.2557C15.3572 12.8957 15.0212 13.4557 14.6052 13.9357C14.1892 14.4157 13.7306 14.8157 13.2292 15.1357C12.7386 15.4557 12.2372 15.701 11.7252 15.8717C11.2132 16.0317 10.7332 16.1117 10.2852 16.1117Z" fill="white"/>
</svg>
